<?xml version="1.0" encoding="UTF-8"?>
<svg xmlns="http://www.w3.org/2000/svg" viewBox="0 0 1600 620" width="1600" height="620" shape-rendering="geometricPrecision">
  <!-- Original Codex-created brand asset for The Farm Fruit & Veg. No source signage photo was supplied. -->
  <rect width="1600" height="620" fill="#fff7e8"/>
  <rect x="40" y="44" width="1520" height="532" rx="22" fill="#ffffff" stroke="#f7ead1" stroke-width="6"/>
  <rect x="74" y="82" width="1452" height="456" rx="16" fill="#fbf5e9" stroke="#dfd0b6" stroke-width="3"/>
  <ellipse cx="327.84000000000003" cy="184.48000000000002" rx="48.16" ry="27.52" fill="#4f9d41" stroke="#174c2f" stroke-width="3"/>
  <polyline points="295.15999999999997,187.92000000000002 362.24,167.28" fill="none" stroke="#174c2f" stroke-width="3" stroke-linecap="round" stroke-linejoin="round"/>
  <ellipse cx="406.96" cy="192.22" rx="39.56" ry="23.22" fill="#74b84f" stroke="#174c2f" stroke-width="3"/>
  <polyline points="381.15999999999997,196.51999999999998 429.32,179.32" fill="none" stroke="#174c2f" stroke-width="3" stroke-linecap="round" stroke-linejoin="round"/>
  <ellipse cx="228.07999999999998" cy="267.03999999999996" rx="49.88" ry="48.16" fill="#d94135" stroke="#174c2f" stroke-width="3"/>
  <rect x="219.48000000000002" y="196.51999999999998" width="12.04" height="29.24" rx="3.44" fill="#6f4a2d"/>
  <ellipse cx="321.82" cy="264.46" rx="50.74" ry="50.74" fill="#f39a28" stroke="#174c2f" stroke-width="3"/>
  <ellipse cx="439.64" cy="267.03999999999996" rx="46.44" ry="44.72" fill="#74b84f" stroke="#174c2f" stroke-width="3"/>
  <polygon points="358.79999999999995,255.0 470.6,310.03999999999996 363.96000000000004,330.68" fill="#e56f2b" stroke="#174c2f" stroke-width="3"/>
  <polyline points="377.71999999999997,263.6 444.8,311.76" fill="none" stroke="#ffb26e" stroke-width="3" stroke-linecap="round" stroke-linejoin="round"/>
  <polygon points="145.52,310.03999999999996 508.44,310.03999999999996 460.28,413.24 193.68,413.24" fill="#6f4a2d" stroke="#174c2f" stroke-width="4"/>
  <rect x="173.04" y="328.96000000000004" width="306.15999999999997" height="30.96" rx="6.88" fill="#8a623f"/>
  <polyline points="214.32,323.79999999999995 240.12,411.52" fill="none" stroke="#b48454" stroke-width="6" stroke-linecap="round" stroke-linejoin="round"/>
  <polyline points="302.03999999999996,323.79999999999995 315.79999999999995,411.52" fill="none" stroke="#b48454" stroke-width="6" stroke-linecap="round" stroke-linejoin="round"/>
  <polyline points="396.64,323.79999999999995 376.0,411.52" fill="none" stroke="#b48454" stroke-width="6" stroke-linecap="round" stroke-linejoin="round"/>
  <polyline points="185.07999999999998,373.68 472.32,373.68" fill="none" stroke="#b48454" stroke-width="6" stroke-linecap="round" stroke-linejoin="round"/>
  <text x="1055" y="190" fill="#174c2f" font-family="Arial Black" font-size="90" font-weight="700" text-anchor="middle" dominant-baseline="middle" letter-spacing="3">THE FARM</text>
  <text x="1055" y="306" fill="#2f7d32" font-family="Arial Black" font-size="96" font-weight="700" text-anchor="middle" dominant-baseline="middle" letter-spacing="1" stroke="#ffffff" stroke-width="3" paint-order="stroke">FRUIT &amp; VEG</text>
  <polyline points="760,390 1350,390" fill="none" stroke="#f39a28" stroke-width="8" stroke-linecap="round" stroke-linejoin="round"/>
  <text x="1055" y="448" fill="#6f4a2d" font-family="Arial Black" font-size="40" font-weight="700" text-anchor="middle" dominant-baseline="middle" letter-spacing="4">FRESH PRODUCE MARKET</text>
  <ellipse cx="1393.0" cy="431.0" rx="9.0" ry="9.0" fill="#d94135" stroke="#174c2f" stroke-width="2"/>
  <ellipse cx="1427.0" cy="431.0" rx="9.0" ry="9.0" fill="#f39a28" stroke="#174c2f" stroke-width="2"/>
  <ellipse cx="1461.0" cy="431.0" rx="9.0" ry="9.0" fill="#74b84f" stroke="#174c2f" stroke-width="2"/>
  <ellipse cx="1495.0" cy="431.0" rx="9.0" ry="9.0" fill="#4f9d41" stroke="#174c2f" stroke-width="2"/>
</svg>
